<?xml version="1.0" encoding="UTF-8" standalone="no"?>
<!-- Created with Inkscape (http://www.inkscape.org/) -->

<svg
   width="512"
   height="512"
   viewBox="0 0 135.46667 135.46667"
   version="1.1"
   id="svg5"
   inkscape:version="1.1.2 (0a00cf5339, 2022-02-04)"
   sodipodi:docname="webhook_icon.svg"
   xmlns:inkscape="http://www.inkscape.org/namespaces/inkscape"
   xmlns:sodipodi="http://sodipodi.sourceforge.net/DTD/sodipodi-0.dtd"
   xmlns="http://www.w3.org/2000/svg"
   xmlns:svg="http://www.w3.org/2000/svg">
  <sodipodi:namedview
     id="namedview7"
     pagecolor="#505050"
     bordercolor="#ffffff"
     borderopacity="1"
     inkscape:pageshadow="0"
     inkscape:pageopacity="0"
     inkscape:pagecheckerboard="1"
     inkscape:document-units="mm"
     showgrid="false"
     inkscape:zoom="0.74742565"
     inkscape:cx="218.75086"
     inkscape:cy="259.55759"
     inkscape:window-width="2544"
     inkscape:window-height="995"
     inkscape:window-x="1928"
     inkscape:window-y="40"
     inkscape:window-maximized="0"
     inkscape:current-layer="layer1"
     units="px"
     width="512px" />
  <defs
     id="defs2" />
  <g
     inkscape:label="Layer 1"
     inkscape:groupmode="layer"
     id="layer1"
     transform="translate(-80.558527,-91.438318)">
    <g
       inkscape:label="Camada 1"
       id="layer1-7"
       transform="matrix(1.1443733,0,0,1.1443733,-70.868923,-325.39239)">
      <g
         id="g9698">
        <g
           id="g9445"
           transform="translate(82.633467,279.63374)">
          <g
             id="g2922"
             style="fill:#4285f4;fill-opacity:1">
            <path
               id="path870"
               style="fill:#4285f4;fill-opacity:1;stroke-width:1.18597"
               d="M 106.99219,-2.4863281 A 107.07024,107.07024 0 0 0 -0.078125,104.58398 a 107.07024,107.07024 0 0 0 36.4375,80.4004 L 17.080078,218.52539 A 75.590551,75.590551 0 0 0 0.26367188,216.62695 75.590551,75.590551 0 0 0 -75.326172,292.2168 75.590551,75.590551 0 0 0 0.26367188,367.80859 75.590551,75.590551 0 0 0 75.855469,292.2168 75.590551,75.590551 0 0 0 53.976562,239.03906 L 73.025391,205.89844 93.472656,170.74805 A 67.600625,67.600625 0 0 1 39.390625,104.58398 67.600625,67.600625 0 0 1 106.99219,36.982422 67.600625,67.600625 0 0 1 174.5918,104.58398 67.600625,67.600625 0 0 1 164.54492,139.97852 L 198.67969,159.875 A 107.07024,107.07024 0 0 0 214.0625,104.58398 107.07024,107.07024 0 0 0 106.99219,-2.4863281 Z"
               transform="matrix(0.26458333,0,0,0.26458333,80.558527,91.438318)" />
            <path
               id="path2408"
               style="fill:#4285f4;fill-opacity:1;stroke-width:1.18597"
               d="M 1.2519531,184.14453 A 107.07024,107.07024 0 0 0 -54.205078,198.92188 107.07024,107.07024 0 0 0 -92.195312,345.5 107.07024,107.07024 0 0 0 54.380859,383.49023 107.07024,107.07024 0 0 0 105.20117,311.31641 l 71.06055,-0.71875 a 42.530547,42.530547 0 0 0 0.0352,0.0586 42.530547,42.530547 0 0 0 58.22265,15.0918 42.530547,42.530547 0 0 0 15.08985,-58.22461 42.530547,42.530547 0 0 0 -58.22266,-15.08985 42.530547,42.530547 0 0 0 -15.58008,15.95508 l -71.17187,0.72071 -18.396489,0.0898 a 88.348345,88.348345 0 0 1 3.03711,22.9414 88.348345,88.348345 0 0 1 -88.34960975,88.34766 88.348345,88.348345 0 0 1 -88.34765625,-88.34766 88.348345,88.348345 0 0 1 88.34765625,-88.3496 88.348345,88.348345 0 0 1 0.40624995,0.006 z"
               transform="matrix(0.26458333,0,0,0.26458333,80.558527,91.438318)" />
            <path
               id="path2410"
               style="fill:#4285f4;fill-opacity:1;stroke-width:0.313788"
               d="m 161.66884,182.62952 a 28.329001,28.329001 0 0 0 -10.2619,-38.72673 28.329001,28.329001 0 0 0 -23.23657,-2.35155 l -9.38729,-16.29137 a 11.252874,11.252874 0 0 0 0.009,-0.0152 11.252874,11.252874 0 0 0 -4.07586,-15.38306 11.252874,11.252874 0 0 0 -15.38331,4.07631 11.252874,11.252874 0 0 0 4.07655,15.38287 11.252874,11.252874 0 0 0 5.70082,1.52185 l 9.40191,16.31659 5.32334,9.3501 a 17.885999,17.885999 0 0 1 22.32516,-3.57736 17.885999,17.885999 0 0 1 6.47911,24.45112 17.885999,17.885999 0 0 1 -24.45085,6.47866 17.885999,17.885999 0 0 1 -6.76167,-7.00326 l -9.08907,5.1642 a 28.329001,28.329001 0 0 0 10.60406,10.86872 28.329001,28.329001 0 0 0 38.72673,-10.26191 z" />
          </g>
        </g>
        <path
           inkscape:connector-curvature="0"
           style="fill:#ffffff;fill-opacity:1;stroke:none;stroke-width:0.0225487;stroke-miterlimit:4;stroke-dasharray:none"
           d="m 158.08623,433.15156 a 3.7793546,3.7793546 0 0 0 -3.78004,3.77888 3.7793546,3.7793546 0 0 0 0.97881,2.5309 v 0.0136 a 3.6233208,3.6515067 0 0 1 1.04871,2.56704 3.6233208,3.6515067 0 0 1 -1.04871,2.56583 v 0.0136 a 3.7793546,3.7793546 0 0 0 -8.2e-4,0.002 3.7793546,3.7793546 0 0 0 -0.23305,0.28549 3.7793546,3.7793546 0 0 0 -0.0114,0.0159 3.7793546,3.7793546 0 0 0 -0.19228,0.28781 3.7793546,3.7793546 0 0 0 -0.0291,0.0512 3.7793546,3.7793546 0 0 0 -0.14681,0.27849 3.7793546,3.7793546 0 0 0 -0.0257,0.0582 3.7793546,3.7793546 0 0 0 -0.11766,0.28896 3.7793546,3.7793546 0 0 0 -0.0233,0.0699 3.7793546,3.7793546 0 0 0 -0.0816,0.27616 3.7793546,3.7793546 0 0 0 -0.0268,0.12107 3.7793546,3.7793546 0 0 0 -0.0443,0.23652 3.7793546,3.7793546 0 0 0 -0.0198,0.15379 3.7793546,3.7793546 0 0 0 -0.0198,0.2319 3.7793546,3.7793546 0 0 0 -0.006,0.17249 3.7793546,3.7793546 0 0 0 0,8.1e-4 3.7793546,3.7793546 0 0 0 0,0.002 3.7793546,3.7793546 0 0 0 0.0187,0.37639 3.7793546,3.7793546 0 0 0 0,8.2e-4 3.7793546,3.7793546 0 0 0 0.0571,0.3717 3.7793546,3.7793546 0 0 0 0,0.002 3.7793546,3.7793546 0 0 0 0.0932,0.36588 3.7793546,3.7793546 0 0 0 0.12935,0.35424 3.7793546,3.7793546 0 0 0 0,8.1e-4 3.7793546,3.7793546 0 0 0 0.16428,0.33908 3.7793546,3.7793546 0 0 0 0,0.002 3.7793546,3.7793546 0 0 0 0.12121,0.19685 3.7793546,3.7793546 0 0 0 0.0758,0.1236 3.7793546,3.7793546 0 0 0 8.2e-4,0.002 3.7793546,3.7793546 0 0 0 0.48474,0.57677 3.7793546,3.7793546 0 0 0 8.1e-4,0.002 3.7793546,3.7793546 0 0 0 0.28316,0.24819 3.7793546,3.7793546 0 0 0 8.1e-4,0.002 3.7793546,3.7793546 0 0 0 0.30645,0.21894 3.7793546,3.7793546 0 0 0 0.32745,0.18761 3.7793546,3.7793546 0 0 0 8.1e-4,0 3.7793546,3.7793546 0 0 0 0.34373,0.15379 3.7793546,3.7793546 0 0 0 8.1e-4,0.002 3.7793546,3.7793546 0 0 0 0.23771,0.0792 3.7793546,3.7793546 0 0 0 0.11879,0.0397 3.7793546,3.7793546 0 0 0 8.2e-4,0 3.7793546,3.7793546 0 0 0 0.3682,0.0827 3.7793546,3.7793546 0 0 0 8.1e-4,0 3.7793546,3.7793546 0 0 0 0.37287,0.0455 3.7793546,3.7793546 0 0 0 8.2e-4,0 3.7793546,3.7793546 0 0 0 0.268,0.009 3.7793546,3.7793546 0 0 0 2.53089,-0.9788 h 0.0114 a 3.6515067,3.6233208 0 0 1 2.567,-1.04871 3.6515067,3.6233208 0 0 1 2.41788,0.91471 3.6233208,3.6515067 0 0 1 0.94034,2.44466 3.6233208,3.6515067 0 0 1 -0.91704,2.42019 3.6515067,3.6233211 0 0 1 -2.44118,0.93569 3.6515067,3.6233211 0 0 1 -2.48428,-0.97413 h -0.0162 a 3.7793546,3.7793546 0 0 0 -2.61014,-1.05106 3.7793546,3.7793546 0 0 0 -3.77886,3.77887 3.7793546,3.7793546 0 0 0 3.77886,3.78001 3.7793546,3.7793546 0 0 0 2.5309,-0.97878 h 0.0129 a 3.6515067,3.6233211 0 0 1 2.56701,-1.04873 3.6515067,3.6233211 0 0 1 2.56585,1.04873 h 0.0129 a 3.7793546,3.7793546 0 0 0 8.2e-4,0.002 3.7793546,3.7793546 0 0 0 0.28548,0.23304 3.7793546,3.7793546 0 0 0 0.0162,0.0114 3.7793546,3.7793546 0 0 0 0.28782,0.19234 3.7793546,3.7793546 0 0 0 0.0512,0.0291 3.7793546,3.7793546 0 0 0 0.27849,0.14679 3.7793546,3.7793546 0 0 0 0.0583,0.0257 3.7793546,3.7793546 0 0 0 0.28898,0.11766 3.7793546,3.7793546 0 0 0 0.0699,0.0233 3.7793546,3.7793546 0 0 0 0.27617,0.0816 3.7793546,3.7793546 0 0 0 0.12005,0.0268 3.7793546,3.7793546 0 0 0 0.24004,0.0455 3.7793546,3.7793546 0 0 0 0.14916,0.0181 3.7793546,3.7793546 0 0 0 0.23537,0.0202 3.7793546,3.7793546 0 0 0 0.17362,0.007 3.7793546,3.7793546 0 0 0 2.71151,-1.14657 3.7793546,3.7793546 0 0 0 0.46842,-0.59078 3.7793546,3.7793546 0 0 0 0.34259,-0.67351 3.7793546,3.7793546 0 0 0 0.25635,-1.36799 3.7793546,3.7793546 0 0 0 0,-0.002 3.7793546,3.7793546 0 0 0 -0.0187,-0.37637 3.7793546,3.7793546 0 0 0 0,-0.002 3.7793546,3.7793546 0 0 0 -0.15031,-0.7376 3.7793546,3.7793546 0 0 0 0,-0.002 3.7793546,3.7793546 0 0 0 -0.78304,-1.38546 3.7793546,3.7793546 0 0 0 -0.0991,-0.1107 v -0.009 a 3.6233208,3.6515067 0 0 1 -0.97413,-2.48778 3.6233208,3.6515067 0 0 1 0.97413,-2.48428 v -0.0136 a 3.7793546,3.7793546 0 0 0 0.24704,-0.28781 3.7793546,3.7793546 0 0 0 0.40085,-0.63155 3.7793546,3.7793546 0 0 0 0.004,-0.007 3.7793546,3.7793546 0 0 0 0.0244,-0.0571 3.7793546,3.7793546 0 0 0 0.12702,-0.28898 3.7793546,3.7793546 0 0 0 0.11651,-0.35889 3.7793546,3.7793546 0 0 0 0.0805,-0.36703 3.7793546,3.7793546 0 0 0 0,-0.002 3.7793546,3.7793546 0 0 0 0.005,-0.036 3.7793546,3.7793546 0 0 0 0.0385,-0.33676 3.7793546,3.7793546 0 0 0 0,-0.002 3.7793546,3.7793546 0 0 0 0.007,-0.2377 v -0.002 a 3.7793546,3.7793546 0 0 0 -3.77886,-3.77885 3.7793546,3.7793546 0 0 0 -0.75042,0.0758 3.7793546,3.7793546 0 0 0 -0.36705,0.0931 3.7793546,3.7793546 0 0 0 -1.4111,0.80516 3.7793546,3.7793546 0 0 0 -0.085,0.0769 h -0.009 a 3.6515065,3.6233208 0 0 1 -2.48778,0.97415 3.6515065,3.6233208 0 0 1 -2.43185,-0.9287 3.6233208,3.6515067 0 0 1 -0.92404,-2.4272 3.6233208,3.6515067 0 0 1 0.97413,-2.48429 v -0.0159 a 3.7793546,3.7793546 0 0 0 1.05106,-2.61012 v -0.002 a 3.7793546,3.7793546 0 0 0 -3.77886,-3.77887 z"
           id="path9439" />
      </g>
      <text
         xml:space="preserve"
         style="font-style:normal;font-weight:normal;font-size:10.5833px;line-height:1.25;font-family:sans-serif;letter-spacing:0px;word-spacing:0px;fill:#000000;fill-opacity:1;stroke:none;stroke-width:0.264583"
         x="-473.76953"
         y="271.3685"
         id="text380" />
      <text
         xml:space="preserve"
         style="font-style:normal;font-weight:normal;font-size:10.5833px;line-height:1.25;font-family:sans-serif;letter-spacing:0px;word-spacing:0px;fill:#000000;fill-opacity:1;stroke:none;stroke-width:0.264583"
         x="190.96301"
         y="184.35364"
         id="text1485" />
    </g>
  </g>
</svg>
